<?xml version="1.0" encoding="UTF-8"?>
<!DOCTYPE svg PUBLIC "-//W3C//DTD SVG 1.1//EN" "http://www.w3.org/Graphics/SVG/1.1/DTD/svg11.dtd">
<!-- Creator: CorelDRAW -->
<svg xmlns="http://www.w3.org/2000/svg" xml:space="preserve" width="512px" height="512px" version="1.1" style="shape-rendering:geometricPrecision; text-rendering:geometricPrecision; image-rendering:optimizeQuality; fill-rule:evenodd; clip-rule:evenodd"
viewBox="0 0 512 512"
 xmlns:xlink="http://www.w3.org/1999/xlink">
 <defs>
  <style type="text/css">
   <![CDATA[
    .fil2 {fill:#00CCFF}
    .fil1 {fill:#00CCFF}
    .fil0 {fill:#1B74B9}
   ]]>
  </style>
 </defs>
 <g id="Layer_x0020_1">
  <metadata id="CorelCorpID_0Corel-Layer"/>
  <path class="fil0" d="M374 504l-214 0c-15,0 -27,-12 -27,-27l0 -261 -24 22c-3,3 -7,2 -10,0l0 0c-8,-9 -20,-33 -9,-44l3 -1 -65 -73c-19,11 -39,-15 -21,-31l86 -76c16,-15 40,6 27,25l65 73c12,-11 35,3 43,11 7,8 -4,14 -10,20l201 -54c14,-4 28,4 32,19l61 225c0,2 0,5 -2,7l-53 85c-2,2 -69,69 -78,78 -1,2 -3,2 -5,2zm-335 -393l64 72 71 -62 -64 -73 -71 63zm66 -78c2,-2 7,-3 3,-9 0,-1 -3,-2 -5,0l-87 76c-5,5 2,11 5,7l84 -74zm43 170l0 275c0,6 6,12 12,12l207 0 0 -51c0,-14 12,-26 26,-26l51 0 0 -226c0,-6 -6,-12 -12,-12l-244 0 36 41 32 59c4,7 -4,14 -10,10l-55 -41 -39 -44 -4 3zm15 -13l39 44 26 19 -16 -29 -38 -43 -11 9zm7 -26c1,-2 3,-3 4,-4l38 -33c-7,-4 -15,-7 -18,-6 -2,2 -3,4 -8,7l-79 71 -7 6c-1,2 2,11 5,17l65 -58zm-70 41c0,0 0,0 0,0zm232 242l-150 0c-9,0 -9,-15 0,-15l150 0c10,0 10,15 0,15zm76 -42l-226 0c-9,0 -9,-15 0,-15l226 0c10,0 10,15 0,15zm0 -43l-226 0c-9,0 -9,-15 0,-15l226 0c10,0 10,15 0,15zm0 -42l-226 0c-9,0 -9,-15 0,-15l226 0c10,0 10,15 0,15zm80 25l-30 9 0 41 30 -50zm-282 -185l225 0c9,0 18,5 22,12l-16 -61c-2,-6 -8,-10 -14,-9l-217 58zm252 29l0 150 37 -10 -37 -140zm-25 238l-40 0c-7,0 -12,5 -12,12l0 40 52 -52z"/>
  <path class="fil1" d="M206 160l225 0c9,0 18,5 22,12l-16 -61c-2,-6 -8,-10 -14,-9l-217 58z"/>
  <polygon class="fil1" points="458,189 458,339 495,329 "/>
  <polygon class="fil2" points="488,345 458,354 458,395 "/>
  <path class="fil2" d="M433 427l-40 0c-7,0 -12,5 -12,12l0 40 52 -52z"/>
  <polygon class="fil2" points="228,253 212,224 174,181 163,190 202,234 "/>
  <polygon class="fil2" points="103,183 174,121 110,48 39,111 "/>
  <path class="fil2" d="M186 128l-79 71 -7 6c-1,2 2,11 5,17l65 -58c1,-2 3,-3 4,-4l38 -33c-7,-4 -15,-7 -18,-6 -2,2 -3,4 -8,7z"/>
  <path class="fil2" d="M21 107l84 -74c2,-2 7,-3 3,-9 0,-1 -3,-2 -5,0l-87 76c-5,5 2,11 5,7z"/>
 </g>
</svg>
